<?xml version="1.0" encoding="utf-8"?>
<!-- Generator: Adobe Illustrator 22.0.1, SVG Export Plug-In . SVG Version: 6.00 Build 0)  -->
<svg version="1.1" id="Ebene_1" xmlns="http://www.w3.org/2000/svg" xmlns:xlink="http://www.w3.org/1999/xlink" x="0px" y="0px"
	 viewBox="0 0 1920 1080" style="enable-background:new 0 0 1920 1080;" xml:space="preserve">
<style type="text/css">
	.st0{fill:#FF6D6F;}
	.st1{fill:none;stroke:#000000;stroke-width:8;stroke-linecap:round;stroke-miterlimit:10;}
	.st2{fill:none;stroke:#000000;stroke-width:5;stroke-linecap:round;stroke-miterlimit:10;}
	.st3{fill:none;stroke:#000000;stroke-width:6;stroke-miterlimit:10;}
	.st4{fill:none;stroke:#FFFFFF;}
	.st5{fill:#FFFFFF;}
	.st6{font-family:'MyriadPro-Regular';}
	.st7{font-size:100px;}
	.st8{font-size:90px;}
</style>
<g id="Ebene_1_1_">
</g>
<g id="Ebene_2_1_">
	<g>
		<g>
			<path class="st0" d="M574.6,587.2H344.4c-19,0-34.4-15.4-34.4-34.4V326.4c0-19,15.4-34.4,34.4-34.4h230.2
				c19,0,34.4,15.4,34.4,34.4v226.4C609,571.8,593.6,587.2,574.6,587.2z"/>
		</g>
		<g>
			<g>
				<line class="st1" x1="99.8" y1="433.7" x2="255.5" y2="433.7"/>
				<g>
					<path d="M200.9,472.1c-1.2-1.9-0.6-4.3,1.2-5.5l51.6-32.9l-51.6-32.9c-1.9-1.2-2.4-3.7-1.2-5.5c1.2-1.9,3.7-2.4,5.5-1.2
						l56.9,36.3c1.1,0.7,1.9,2,1.9,3.4s-0.7,2.6-1.9,3.4l-56.9,36.3c-0.7,0.4-1.4,0.6-2.1,0.6C202.9,473.9,201.6,473.3,200.9,472.1z
						"/>
				</g>
			</g>
		</g>
		<g>
			<g>
				<line class="st2" x1="1575.1" y1="625.9" x2="1575.1" y2="840.9"/>
				<g>
					<path d="M1551.1,806.7c1.2-0.7,2.7-0.4,3.5,0.8l20.5,32.3l20.5-32.3c0.7-1.2,2.3-1.5,3.5-0.8s1.5,2.3,0.8,3.5l-22.7,35.6
						c-0.5,0.7-1.3,1.2-2.1,1.2s-1.7-0.4-2.1-1.2l-22.7-35.6c-0.3-0.4-0.4-0.9-0.4-1.3C1550,808,1550.4,807.2,1551.1,806.7z"/>
				</g>
			</g>
		</g>
		<g>
			<g>
				<line class="st2" x1="1008.8" y1="627.4" x2="1008.8" y2="842.5"/>
				<g>
					<path d="M984.8,808.3c1.2-0.7,2.7-0.4,3.5,0.8l20.5,32.3l20.5-32.3c0.7-1.2,2.3-1.5,3.5-0.8s1.5,2.3,0.8,3.5l-22.7,35.6
						c-0.5,0.7-1.3,1.2-2.1,1.2s-1.7-0.4-2.1-1.2L984,811.8c-0.3-0.4-0.4-0.9-0.4-1.3C983.7,809.6,984.1,808.8,984.8,808.3z"/>
				</g>
			</g>
		</g>
		<g>
			<g>
				<line class="st2" x1="458.8" y1="632.4" x2="458.8" y2="847.5"/>
				<g>
					<path d="M434.8,813.3c1.2-0.7,2.7-0.4,3.5,0.8l20.5,32.3l20.5-32.3c0.7-1.2,2.3-1.5,3.5-0.8s1.5,2.3,0.8,3.5l-22.7,35.6
						c-0.5,0.7-1.3,1.2-2.1,1.2s-1.7-0.4-2.1-1.2L434,816.8c-0.3-0.4-0.4-0.9-0.4-1.3C433.7,814.6,434.1,813.8,434.8,813.3z"/>
				</g>
			</g>
		</g>
		<g>
			<g>
				<line class="st1" x1="656.8" y1="427.7" x2="812.5" y2="427.7"/>
				<g>
					<path d="M757.9,466.1c-1.2-1.9-0.6-4.3,1.2-5.5l51.6-32.9l-51.6-32.9c-1.9-1.2-2.4-3.7-1.2-5.5c1.2-1.9,3.7-2.4,5.5-1.2
						l56.9,36.3c1.1,0.7,1.9,2,1.9,3.4s-0.7,2.6-1.9,3.4l-56.9,36.3c-0.7,0.4-1.4,0.6-2.1,0.6C759.9,467.9,758.6,467.3,757.9,466.1z
						"/>
				</g>
			</g>
		</g>
		<g>
			<path class="st0" d="M1125.6,578.3H895.4c-19,0-34.4-15.4-34.4-34.4V317.5c0-19,15.4-34.4,34.4-34.4h230.2
				c19,0,34.4,15.4,34.4,34.4v226.4C1160,562.9,1144.6,578.3,1125.6,578.3z"/>
		</g>
		<g>
			<g>
				<line class="st1" x1="1209.8" y1="426.7" x2="1365.5" y2="426.7"/>
				<g>
					<path d="M1310.9,465.1c-1.2-1.9-0.6-4.3,1.2-5.5l51.6-32.9l-51.6-32.9c-1.9-1.2-2.4-3.7-1.2-5.5c1.2-1.9,3.7-2.4,5.5-1.2
						l56.9,36.3c1.1,0.7,1.9,2,1.9,3.4s-0.7,2.6-1.9,3.4l-56.9,36.3c-0.7,0.4-1.4,0.6-2.1,0.6
						C1312.9,466.9,1311.6,466.3,1310.9,465.1z"/>
				</g>
			</g>
		</g>
		<g>
			<path class="st0" d="M1684.6,578.3h-230.2c-19,0-34.4-15.4-34.4-34.4V317.5c0-19,15.4-34.4,34.4-34.4h230.2
				c19,0,34.4,15.4,34.4,34.4v226.4C1719,562.9,1703.6,578.3,1684.6,578.3z"/>
		</g>
		<g>
			<g>
				<path class="st3" d="M1568,245c-12.9-15.6-112.1-131.2-278-130c-145.2,1-237.5,90.8-262.2,117.6"/>
				<g>
					<path d="M1034.4,183c1.6,0.3,2.7,1.8,2.4,3.5l-8,45.2l44.3-11.9c1.6-0.4,3.3,0.5,3.7,2.1c0.4,1.6-0.5,3.2-2.1,3.7l-48.9,13.1
						c-1,0.3-2,0-2.8-0.7s-1.1-1.7-0.9-2.7l8.8-49.8c0.1-0.6,0.4-1.1,0.7-1.5C1032.3,183.2,1033.3,182.8,1034.4,183z"/>
				</g>
			</g>
		</g>
		<path d="M494.7,956.4v21.5c0,5.3-1.9,9.9-5.7,13.7c-3.8,3.8-8.3,5.7-13.7,5.7h-55.9c-5.3,0-9.9-1.9-13.7-5.7
			c-3.8-3.8-5.7-8.3-5.7-13.7V922c0-5.3,1.9-9.9,5.7-13.7c3.8-3.8,8.3-5.7,13.7-5.7h47.3c0.6,0,1.1,0.2,1.5,0.6s0.6,0.9,0.6,1.5v4.3
			c0,0.6-0.2,1.1-0.6,1.5s-0.9,0.6-1.5,0.6h-47.3c-3,0-5.5,1.1-7.6,3.2c-2.1,2.1-3.2,4.6-3.2,7.6v55.9c0,3,1.1,5.5,3.2,7.6
			s4.6,3.2,7.6,3.2h55.9c3,0,5.5-1.1,7.6-3.2c2.1-2.1,3.2-4.6,3.2-7.6v-21.5c0-0.6,0.2-1.1,0.6-1.5s0.9-0.6,1.5-0.6h4.3
			c0.6,0,1.1,0.2,1.5,0.6C494.5,955.3,494.7,955.8,494.7,956.4z M520.5,898.3v34.4c0,1.2-0.4,2.2-1.3,3s-1.9,1.3-3,1.3
			c-1.2,0-2.2-0.4-3-1.3l-11.8-11.8l-43.8,43.8c-0.4,0.4-1,0.7-1.5,0.7c-0.6,0-1.1-0.2-1.5-0.7l-7.7-7.7c-0.4-0.4-0.7-1-0.7-1.5
			s0.2-1.1,0.7-1.5l43.8-43.8l-11.8-11.8c-0.9-0.9-1.3-1.9-1.3-3c0-1.2,0.4-2.2,1.3-3s1.9-1.3,3-1.3h34.4c1.2,0,2.2,0.4,3,1.3
			S520.5,897.1,520.5,898.3z"/>
		<g id="Document_7_">
			<rect x="979.7" y="910.7" width="46.8" height="2.7"/>
			<rect x="979.7" y="920.6" width="46.8" height="2.7"/>
			<rect x="979.7" y="931.4" width="46.8" height="2.7"/>
			<rect x="979.7" y="941.3" width="46.8" height="2.7"/>
			<rect x="979.7" y="952.1" width="46.8" height="2.7"/>
			<path d="M1035.9,889.8h-64.8c-4.5,0-8.1,3.6-8.1,8.1v85.9c0,4.5,3.6,8.1,8.1,8.1h52.2c11.4,0,20.7-9.3,20.7-20.7v-73.3
				C1044,893.4,1040.4,889.8,1035.9,889.8z M968.4,983.8v-85.9c0-1.5,1.2-2.7,2.7-2.7h64.8c1.5,0,2.7,1.2,2.7,2.7v69.5h-20.2v19.1
				h-47.2C969.6,986.5,968.4,985.3,968.4,983.8z M1023.8,986.5v-13.7h14.8C1037.7,980.4,1031.4,986.3,1023.8,986.5z"/>
		</g>
		<path d="M1617.4,882.6h-85.5c-8.2,0-14.7,6.6-14.7,14.7v70.9c0,8.2,6.6,14.7,14.7,14.7h85.4c8.2,0,14.7-6.6,14.7-14.7v-70.9
			C1632.1,889.2,1625.4,882.6,1617.4,882.6z M1568.6,896.3c3.4,0,6,2.7,6,6s-2.7,6-6,6c-3.4,0-6-2.7-6-6
			C1562.4,899,1565.2,896.3,1568.6,896.3z M1551.6,896.3c3.4,0,6,2.7,6,6s-2.7,6-6,6c-3.4,0-6-2.7-6-6
			C1545.4,899,1548.2,896.3,1551.6,896.3z M1535.7,896.3c3.4,0,6,2.7,6,6s-2.7,6-6,6c-3.4,0-6-2.7-6-6S1532.4,896.3,1535.7,896.3z
			 M1624.1,968.1c0,3.8-2.9,6.7-6.7,6.7h-85.5c-3.8,0-6.7-2.9-6.7-6.7v-43.6h98.8L1624.1,968.1L1624.1,968.1z"/>
	</g>
	<g>
		<g>
			<path class="st4" d="M574.6,587.2H344.4c-19,0-34.4-15.4-34.4-34.4V326.4c0-19,15.4-34.4,34.4-34.4h230.2
				c19,0,34.4,15.4,34.4,34.4v226.4C609,571.8,593.6,587.2,574.6,587.2z"/>
		</g>
		<g>
			<g>
				<line class="st4" x1="99.8" y1="433.7" x2="255.5" y2="433.7"/>
				<g>
					<path class="st4" d="M200.9,472.1c-1.2-1.9-0.6-4.3,1.2-5.5l51.6-32.9l-51.6-32.9c-1.9-1.2-2.4-3.7-1.2-5.5
						c1.2-1.9,3.7-2.4,5.5-1.2l56.9,36.3c1.1,0.7,1.9,2,1.9,3.4s-0.7,2.6-1.9,3.4l-56.9,36.3c-0.7,0.4-1.4,0.6-2.1,0.6
						C202.9,473.9,201.6,473.3,200.9,472.1z"/>
				</g>
			</g>
		</g>
		<g>
			<g>
				<line class="st4" x1="1575.1" y1="625.9" x2="1575.1" y2="840.9"/>
				<g>
					<path class="st4" d="M1551.1,806.7c1.2-0.7,2.7-0.4,3.5,0.8l20.5,32.3l20.5-32.3c0.7-1.2,2.3-1.5,3.5-0.8s1.5,2.3,0.8,3.5
						l-22.7,35.6c-0.5,0.7-1.3,1.2-2.1,1.2s-1.7-0.4-2.1-1.2l-22.7-35.6c-0.3-0.4-0.4-0.9-0.4-1.3
						C1550,808,1550.4,807.2,1551.1,806.7z"/>
				</g>
			</g>
		</g>
		<g>
			<g>
				<line class="st4" x1="1008.8" y1="627.4" x2="1008.8" y2="842.5"/>
				<g>
					<path class="st4" d="M984.8,808.3c1.2-0.7,2.7-0.4,3.5,0.8l20.5,32.3l20.5-32.3c0.7-1.2,2.3-1.5,3.5-0.8s1.5,2.3,0.8,3.5
						l-22.7,35.6c-0.5,0.7-1.3,1.2-2.1,1.2s-1.7-0.4-2.1-1.2L984,811.8c-0.3-0.4-0.4-0.9-0.4-1.3
						C983.7,809.6,984.1,808.8,984.8,808.3z"/>
				</g>
			</g>
		</g>
		<g>
			<g>
				<line class="st4" x1="458.8" y1="632.4" x2="458.8" y2="847.5"/>
				<g>
					<path class="st4" d="M434.8,813.3c1.2-0.7,2.7-0.4,3.5,0.8l20.5,32.3l20.5-32.3c0.7-1.2,2.3-1.5,3.5-0.8s1.5,2.3,0.8,3.5
						l-22.7,35.6c-0.5,0.7-1.3,1.2-2.1,1.2s-1.7-0.4-2.1-1.2L434,816.8c-0.3-0.4-0.4-0.9-0.4-1.3
						C433.7,814.6,434.1,813.8,434.8,813.3z"/>
				</g>
			</g>
		</g>
		<g>
			<g>
				<line class="st4" x1="656.8" y1="427.7" x2="812.5" y2="427.7"/>
				<g>
					<path class="st4" d="M757.9,466.1c-1.2-1.9-0.6-4.3,1.2-5.5l51.6-32.9l-51.6-32.9c-1.9-1.2-2.4-3.7-1.2-5.5
						c1.2-1.9,3.7-2.4,5.5-1.2l56.9,36.3c1.1,0.7,1.9,2,1.9,3.4s-0.7,2.6-1.9,3.4l-56.9,36.3c-0.7,0.4-1.4,0.6-2.1,0.6
						C759.9,467.9,758.6,467.3,757.9,466.1z"/>
				</g>
			</g>
		</g>
		<g>
			<path class="st4" d="M1125.6,578.3H895.4c-19,0-34.4-15.4-34.4-34.4V317.5c0-19,15.4-34.4,34.4-34.4h230.2
				c19,0,34.4,15.4,34.4,34.4v226.4C1160,562.9,1144.6,578.3,1125.6,578.3z"/>
		</g>
		<g>
			<g>
				<line class="st4" x1="1209.8" y1="426.7" x2="1365.5" y2="426.7"/>
				<g>
					<path class="st4" d="M1310.9,465.1c-1.2-1.9-0.6-4.3,1.2-5.5l51.6-32.9l-51.6-32.9c-1.9-1.2-2.4-3.7-1.2-5.5
						c1.2-1.9,3.7-2.4,5.5-1.2l56.9,36.3c1.1,0.7,1.9,2,1.9,3.4s-0.7,2.6-1.9,3.4l-56.9,36.3c-0.7,0.4-1.4,0.6-2.1,0.6
						C1312.9,466.9,1311.6,466.3,1310.9,465.1z"/>
				</g>
			</g>
		</g>
		<g>
			<path class="st4" d="M1684.6,578.3h-230.2c-19,0-34.4-15.4-34.4-34.4V317.5c0-19,15.4-34.4,34.4-34.4h230.2
				c19,0,34.4,15.4,34.4,34.4v226.4C1719,562.9,1703.6,578.3,1684.6,578.3z"/>
		</g>
		<g>
			<g>
				<path class="st4" d="M1568,245c-12.9-15.6-112.1-131.2-278-130c-145.2,1-237.5,90.8-262.2,117.6"/>
				<g>
					<path class="st4" d="M1034.4,183c1.6,0.3,2.7,1.8,2.4,3.5l-8,45.2l44.3-11.9c1.6-0.4,3.3,0.5,3.7,2.1c0.4,1.6-0.5,3.2-2.1,3.7
						l-48.9,13.1c-1,0.3-2,0-2.8-0.7s-1.1-1.7-0.9-2.7l8.8-49.8c0.1-0.6,0.4-1.1,0.7-1.5C1032.3,183.2,1033.3,182.8,1034.4,183z"/>
				</g>
			</g>
		</g>
		<path class="st4" d="M494.7,956.4v21.5c0,5.3-1.9,9.9-5.7,13.7c-3.8,3.8-8.3,5.7-13.7,5.7h-55.9c-5.3,0-9.9-1.9-13.7-5.7
			c-3.8-3.8-5.7-8.3-5.7-13.7V922c0-5.3,1.9-9.9,5.7-13.7c3.8-3.8,8.3-5.7,13.7-5.7h47.3c0.6,0,1.1,0.2,1.5,0.6s0.6,0.9,0.6,1.5v4.3
			c0,0.6-0.2,1.1-0.6,1.5s-0.9,0.6-1.5,0.6h-47.3c-3,0-5.5,1.1-7.6,3.2c-2.1,2.1-3.2,4.6-3.2,7.6v55.9c0,3,1.1,5.5,3.2,7.6
			s4.6,3.2,7.6,3.2h55.9c3,0,5.5-1.1,7.6-3.2c2.1-2.1,3.2-4.6,3.2-7.6v-21.5c0-0.6,0.2-1.1,0.6-1.5s0.9-0.6,1.5-0.6h4.3
			c0.6,0,1.1,0.2,1.5,0.6C494.5,955.3,494.7,955.8,494.7,956.4z M520.5,898.3v34.4c0,1.2-0.4,2.2-1.3,3s-1.9,1.3-3,1.3
			c-1.2,0-2.2-0.4-3-1.3l-11.8-11.8l-43.8,43.8c-0.4,0.4-1,0.7-1.5,0.7c-0.6,0-1.1-0.2-1.5-0.7l-7.7-7.7c-0.4-0.4-0.7-1-0.7-1.5
			s0.2-1.1,0.7-1.5l43.8-43.8l-11.8-11.8c-0.9-0.9-1.3-1.9-1.3-3c0-1.2,0.4-2.2,1.3-3s1.9-1.3,3-1.3h34.4c1.2,0,2.2,0.4,3,1.3
			S520.5,897.1,520.5,898.3z"/>
		<g id="Document_5_">
			<rect x="979.7" y="910.7" class="st4" width="46.8" height="2.7"/>
			<rect x="979.7" y="920.6" class="st4" width="46.8" height="2.7"/>
			<rect x="979.7" y="931.4" class="st4" width="46.8" height="2.7"/>
			<rect x="979.7" y="941.3" class="st4" width="46.8" height="2.7"/>
			<rect x="979.7" y="952.1" class="st4" width="46.8" height="2.7"/>
			<path class="st4" d="M1035.9,889.8h-64.8c-4.5,0-8.1,3.6-8.1,8.1v85.9c0,4.5,3.6,8.1,8.1,8.1h52.2c11.4,0,20.7-9.3,20.7-20.7
				v-73.3C1044,893.4,1040.4,889.8,1035.9,889.8z M968.4,983.8v-85.9c0-1.5,1.2-2.7,2.7-2.7h64.8c1.5,0,2.7,1.2,2.7,2.7v69.5h-20.2
				v19.1h-47.2C969.6,986.5,968.4,985.3,968.4,983.8z M1023.8,986.5v-13.7h14.8C1037.7,980.4,1031.4,986.3,1023.8,986.5z"/>
		</g>
		<path class="st4" d="M1617.4,882.6h-85.5c-8.2,0-14.7,6.6-14.7,14.7v70.9c0,8.2,6.6,14.7,14.7,14.7h85.4c8.2,0,14.7-6.6,14.7-14.7
			v-70.9C1632.1,889.2,1625.4,882.6,1617.4,882.6z M1568.6,896.3c3.4,0,6,2.7,6,6s-2.7,6-6,6c-3.4,0-6-2.7-6-6
			C1562.4,899,1565.2,896.3,1568.6,896.3z M1551.6,896.3c3.4,0,6,2.7,6,6s-2.7,6-6,6c-3.4,0-6-2.7-6-6
			C1545.4,899,1548.2,896.3,1551.6,896.3z M1535.7,896.3c3.4,0,6,2.7,6,6s-2.7,6-6,6c-3.4,0-6-2.7-6-6S1532.4,896.3,1535.7,896.3z
			 M1624.1,968.1c0,3.8-2.9,6.7-6.7,6.7h-85.5c-3.8,0-6.7-2.9-6.7-6.7v-43.6h98.8L1624.1,968.1L1624.1,968.1z"/>
	</g>
</g>
<g>
	<text transform="matrix(0.7071 -0.7071 0.7071 0.7071 369.8242 571.9318)" class="st5 st6 st7">cdwi.de</text>
	<text transform="matrix(0.7071 -0.7071 0.7071 0.7071 369.8242 571.9318)" class="st4 st6 st7">cdwi.de</text>
</g>
<g>
	<text transform="matrix(0.7071 -0.7071 0.7071 0.7071 911.8975 461.8574)"><tspan x="0" y="0" class="st5 st6 st8">blog.</tspan><tspan x="-51" y="108" class="st5 st6 st8">cdwi.de</tspan></text>
	<text transform="matrix(0.7071 -0.7071 0.7071 0.7071 911.8975 461.8574)"><tspan x="0" y="0" class="st4 st6 st8">blog.</tspan><tspan x="-51" y="108" class="st4 st6 st8">cdwi.de</tspan></text>
</g>
<g>
	<text transform="matrix(0.7071 -0.7071 0.7071 0.7071 1455.329 495.8975)"><tspan x="0" y="0" class="st5 st6 st7">cod...-</tspan><tspan x="-8.3" y="120" class="st5 st6 st7">wi...de</tspan></text>
	<text transform="matrix(0.7071 -0.7071 0.7071 0.7071 1455.329 495.8975)"><tspan x="0" y="0" class="st4 st6 st7">cod...-</tspan><tspan x="-8.3" y="120" class="st4 st6 st7">wi...de</tspan></text>
</g>
</svg>
