<?xml version="1.0" encoding="utf-8"?>
<!-- Generator: Adobe Illustrator 22.0.1, SVG Export Plug-In . SVG Version: 6.00 Build 0)  -->
<svg version="1.1" id="Ebene_1" xmlns="http://www.w3.org/2000/svg" xmlns:xlink="http://www.w3.org/1999/xlink" x="0px" y="0px"
	 viewBox="0 0 1920 1080" style="enable-background:new 0 0 1920 1080;" xml:space="preserve">
<style type="text/css">
	.st0{fill:none;stroke:#000000;stroke-width:8;stroke-linecap:round;stroke-miterlimit:10;}
	.st1{fill:none;stroke:#FFFFFF;}
	.st2{fill:none;stroke:#000000;stroke-width:5;stroke-linecap:round;stroke-miterlimit:10;}
	.st3{fill:#FF6D6F;stroke:#FFFFFF;}
	.st4{fill:#FFFFFF;}
	.st5{font-family:'MyriadPro-Regular';}
	.st6{font-size:100px;}
	.st7{fill:#FF6D6F;}
	.st8{font-size:90px;}
	.st9{fill:#020202;}
	.st10{fill:none;stroke:#070000;stroke-width:6;stroke-linecap:round;}
	.st11{fill:#070000;}
	.st12{fill:none;stroke:#000000;stroke-width:6;stroke-linecap:round;}
	.st13{fill:none;stroke:#FFFFFF;stroke-width:6;stroke-linecap:round;}
</style>
<g id="Ebene_1_1_">
</g>
<g>
	<g>
		<g>
			<line class="st0" x1="1040.6" y1="90.1" x2="1040.6" y2="245.8"/>
			<g>
				<path d="M1002.2,191.2c1.9-1.2,4.3-0.6,5.5,1.2l32.9,51.6l32.9-51.6c1.2-1.9,3.7-2.4,5.5-1.2c1.9,1.2,2.4,3.7,1.2,5.5
					l-36.3,56.9c-0.7,1.1-2,1.9-3.4,1.9c-1.4,0-2.6-0.7-3.4-1.9l-36.3-56.9c-0.4-0.7-0.6-1.4-0.6-2.1
					C1000.4,193.2,1001,191.9,1002.2,191.2z"/>
			</g>
		</g>
	</g>
	<g>
		<g>
			<line class="st1" x1="1040.6" y1="90.1" x2="1040.6" y2="245.8"/>
			<g>
				<path class="st1" d="M1002.2,191.2c1.9-1.2,4.3-0.6,5.5,1.2l32.9,51.6l32.9-51.6c1.2-1.9,3.7-2.4,5.5-1.2
					c1.9,1.2,2.4,3.7,1.2,5.5l-36.3,56.9c-0.7,1.1-2,1.9-3.4,1.9c-1.4,0-2.6-0.7-3.4-1.9l-36.3-56.9c-0.4-0.7-0.6-1.4-0.6-2.1
					C1000.4,193.2,1001,191.9,1002.2,191.2z"/>
			</g>
		</g>
	</g>
</g>
<g>
	<g>
		<g>
			<line class="st2" x1="1254.6" y1="655.7" x2="1473.2" y2="889.7"/>
			<g>
				<path d="M1420.9,868.8c0.2-1.6,1.6-2.3,3.4-1.5l47.8,21.2l-17.9-49.1c-0.7-1.8,0.2-3.2,1.7-3.3c1.6-0.1,3.4,1.5,4.1,3.3
					l19.6,54.2c0.3,1.1,0.3,2.2-0.3,2.7c-0.6,0.5-1.6,0.7-2.8,0.1l-52.8-23.3c-0.6-0.2-1.2-0.7-1.6-1.1
					C1421.4,871,1420.9,869.8,1420.9,868.8z"/>
			</g>
		</g>
	</g>
	<g>
		<g>
			<line class="st1" x1="1254.6" y1="655.7" x2="1473.2" y2="889.7"/>
			<g>
				<path class="st1" d="M1420.9,868.8c0.2-1.6,1.6-2.3,3.4-1.5l47.8,21.2l-17.9-49.1c-0.7-1.8,0.2-3.2,1.7-3.3
					c1.6-0.1,3.4,1.5,4.1,3.3l19.6,54.2c0.3,1.1,0.3,2.2-0.3,2.7c-0.6,0.5-1.6,0.7-2.8,0.1l-52.8-23.3c-0.6-0.2-1.2-0.7-1.6-1.1
					C1421.4,871,1420.9,869.8,1420.9,868.8z"/>
			</g>
		</g>
	</g>
</g>
<g>
	<g>
		<g>
			<line class="st2" x1="1018.8" y1="679.4" x2="1018.8" y2="894.5"/>
			<g>
				<path d="M994.8,860.3c1.2-0.7,2.7-0.4,3.5,0.8l20.5,32.3l20.5-32.3c0.7-1.2,2.3-1.5,3.5-0.8s1.5,2.3,0.8,3.5l-22.7,35.6
					c-0.5,0.7-1.3,1.2-2.1,1.2s-1.7-0.4-2.1-1.2L994,863.8c-0.3-0.4-0.4-0.9-0.4-1.3C993.7,861.6,994.1,860.8,994.8,860.3z"/>
			</g>
		</g>
	</g>
	<g>
		<g>
			<line class="st1" x1="1018.8" y1="679.4" x2="1018.8" y2="894.5"/>
			<g>
				<path class="st1" d="M994.8,860.3c1.2-0.7,2.7-0.4,3.5,0.8l20.5,32.3l20.5-32.3c0.7-1.2,2.3-1.5,3.5-0.8s1.5,2.3,0.8,3.5
					l-22.7,35.6c-0.5,0.7-1.3,1.2-2.1,1.2s-1.7-0.4-2.1-1.2L994,863.8c-0.3-0.4-0.4-0.9-0.4-1.3
					C993.7,861.6,994.1,860.8,994.8,860.3z"/>
			</g>
		</g>
	</g>
</g>
<g>
	<g>
		<g>
			<line class="st2" x1="826.7" y1="667" x2="547" y2="892.6"/>
			<g>
				<path d="M576.4,838c1.7,0.2,2.2,1.7,1.2,3.6l-29.1,49.8l54.9-17.9c2-0.7,3.4,0.2,3.2,1.9c-0.2,1.7-2,3.6-4,4.3L542,899.3
					c-1.2,0.3-2.4,0.2-2.9-0.4c-0.5-0.6-0.5-1.7,0.2-2.9l32-55c0.3-0.7,0.9-1.3,1.4-1.7C574.1,838.5,575.3,838,576.4,838z"/>
			</g>
		</g>
	</g>
	<g>
		<g>
			<line class="st1" x1="826.7" y1="667" x2="547" y2="892.6"/>
			<g>
				<path class="st1" d="M576.4,838c1.7,0.2,2.2,1.7,1.2,3.6l-29.1,49.8l54.9-17.9c2-0.7,3.4,0.2,3.2,1.9c-0.2,1.7-2,3.6-4,4.3
					L542,899.3c-1.2,0.3-2.4,0.2-2.9-0.4c-0.5-0.6-0.5-1.7,0.2-2.9l32-55c0.3-0.7,0.9-1.3,1.4-1.7C574.1,838.5,575.3,838,576.4,838z
					"/>
			</g>
		</g>
	</g>
</g>
<path class="st3" d="M1178,641.9H894c-36.5,0-66-29.5-66-66v-220c0-36.5,29.5-66,66-66h284c36.5,0,66,29.5,66,66v220
	C1244,612.3,1214.5,641.9,1178,641.9z"/>
<path d="M479.6,1005.1v21.5c0,5.3-1.9,9.9-5.7,13.7c-3.8,3.8-8.3,5.7-13.7,5.7h-55.9c-5.3,0-9.9-1.9-13.7-5.7
	c-3.8-3.8-5.7-8.3-5.7-13.7v-55.9c0-5.3,1.9-9.9,5.7-13.7c3.8-3.8,8.3-5.7,13.7-5.7h47.3c0.6,0,1.1,0.2,1.5,0.6s0.6,0.9,0.6,1.5v4.3
	c0,0.6-0.2,1.1-0.6,1.5s-0.9,0.6-1.5,0.6h-47.3c-3,0-5.5,1.1-7.6,3.2c-2.1,2.1-3.2,4.6-3.2,7.6v55.9c0,3,1.1,5.5,3.2,7.6
	s4.6,3.2,7.6,3.2h55.9c3,0,5.5-1.1,7.6-3.2s3.2-4.6,3.2-7.6V1005c0-0.6,0.2-1.1,0.6-1.5s0.9-0.6,1.5-0.6h4.3c0.6,0,1.1,0.2,1.5,0.6
	C479.4,1004,479.6,1004.5,479.6,1005.1z M505.4,947v34.4c0,1.2-0.4,2.2-1.3,3s-1.9,1.3-3,1.3c-1.2,0-2.2-0.4-3-1.3l-11.8-11.8
	l-43.8,43.8c-0.4,0.4-1,0.7-1.5,0.7c-0.6,0-1.1-0.2-1.5-0.7l-7.7-7.7c-0.4-0.4-0.7-1-0.7-1.5s0.2-1.1,0.7-1.5l43.8-43.8l-11.8-11.8
	c-0.9-0.9-1.3-1.9-1.3-3c0-1.2,0.4-2.2,1.3-3s1.9-1.3,3-1.3h34.4c1.2,0,2.2,0.4,3,1.3S505.4,945.8,505.4,947z"/>
<g id="Document_7_">
	<rect x="994.6" y="959.4" width="46.8" height="2.7"/>
	<rect x="994.6" y="969.3" width="46.8" height="2.7"/>
	<rect x="994.6" y="980.1" width="46.8" height="2.7"/>
	<rect x="994.6" y="990" width="46.8" height="2.7"/>
	<rect x="994.6" y="1000.8" width="46.8" height="2.7"/>
	<path d="M1050.8,938.5H986c-4.5,0-8.1,3.6-8.1,8.1v85.9c0,4.5,3.6,8.1,8.1,8.1h52.2c11.4,0,20.7-9.3,20.7-20.7v-73.3
		C1058.9,942.1,1055.3,938.5,1050.8,938.5z M983.3,1032.5v-85.9c0-1.5,1.2-2.7,2.7-2.7h64.8c1.5,0,2.7,1.2,2.7,2.7v69.5h-20.2v19.1
		h-47.2C984.5,1035.2,983.3,1034,983.3,1032.5z M1038.7,1035.2v-13.7h14.8C1052.6,1029.1,1046.3,1035,1038.7,1035.2z"/>
</g>
<path d="M1602.3,931.3h-85.5c-8.2,0-14.7,6.6-14.7,14.7v70.9c0,8.2,6.6,14.7,14.7,14.7h85.4c8.2,0,14.7-6.6,14.7-14.7V946
	C1617,937.9,1610.3,931.3,1602.3,931.3z M1553.5,945c3.4,0,6,2.7,6,6s-2.7,6-6,6c-3.4,0-6-2.7-6-6
	C1547.3,947.7,1550.1,945,1553.5,945z M1536.5,945c3.4,0,6,2.7,6,6s-2.7,6-6,6c-3.4,0-6-2.7-6-6C1530.3,947.7,1533.1,945,1536.5,945
	z M1520.6,945c3.4,0,6,2.7,6,6s-2.7,6-6,6c-3.4,0-6-2.7-6-6S1517.3,945,1520.6,945z M1609,1016.8c0,3.8-2.9,6.7-6.7,6.7h-85.5
	c-3.8,0-6.7-2.9-6.7-6.7v-43.6h98.8L1609,1016.8L1609,1016.8z"/>
<path class="st1" d="M479.6,1005.1v21.5c0,5.3-1.9,9.9-5.7,13.7c-3.8,3.8-8.3,5.7-13.7,5.7h-55.9c-5.3,0-9.9-1.9-13.7-5.7
	c-3.8-3.8-5.7-8.3-5.7-13.7v-55.9c0-5.3,1.9-9.9,5.7-13.7c3.8-3.8,8.3-5.7,13.7-5.7h47.3c0.6,0,1.1,0.2,1.5,0.6s0.6,0.9,0.6,1.5v4.3
	c0,0.6-0.2,1.1-0.6,1.5s-0.9,0.6-1.5,0.6h-47.3c-3,0-5.5,1.1-7.6,3.2c-2.1,2.1-3.2,4.6-3.2,7.6v55.9c0,3,1.1,5.5,3.2,7.6
	s4.6,3.2,7.6,3.2h55.9c3,0,5.5-1.1,7.6-3.2s3.2-4.6,3.2-7.6V1005c0-0.6,0.2-1.1,0.6-1.5s0.9-0.6,1.5-0.6h4.3c0.6,0,1.1,0.2,1.5,0.6
	C479.4,1004,479.6,1004.5,479.6,1005.1z M505.4,947v34.4c0,1.2-0.4,2.2-1.3,3s-1.9,1.3-3,1.3c-1.2,0-2.2-0.4-3-1.3l-11.8-11.8
	l-43.8,43.8c-0.4,0.4-1,0.7-1.5,0.7c-0.6,0-1.1-0.2-1.5-0.7l-7.7-7.7c-0.4-0.4-0.7-1-0.7-1.5s0.2-1.1,0.7-1.5l43.8-43.8l-11.8-11.8
	c-0.9-0.9-1.3-1.9-1.3-3c0-1.2,0.4-2.2,1.3-3s1.9-1.3,3-1.3h34.4c1.2,0,2.2,0.4,3,1.3S505.4,945.8,505.4,947z"/>
<g id="Document_5_">
	<rect x="994.6" y="959.4" class="st1" width="46.8" height="2.7"/>
	<rect x="994.6" y="969.3" class="st1" width="46.8" height="2.7"/>
	<rect x="994.6" y="980.1" class="st1" width="46.8" height="2.7"/>
	<rect x="994.6" y="990" class="st1" width="46.8" height="2.7"/>
	<rect x="994.6" y="1000.8" class="st1" width="46.8" height="2.7"/>
	<path class="st1" d="M1050.8,938.5H986c-4.5,0-8.1,3.6-8.1,8.1v85.9c0,4.5,3.6,8.1,8.1,8.1h52.2c11.4,0,20.7-9.3,20.7-20.7v-73.3
		C1058.9,942.1,1055.3,938.5,1050.8,938.5z M983.3,1032.5v-85.9c0-1.5,1.2-2.7,2.7-2.7h64.8c1.5,0,2.7,1.2,2.7,2.7v69.5h-20.2v19.1
		h-47.2C984.5,1035.2,983.3,1034,983.3,1032.5z M1038.7,1035.2v-13.7h14.8C1052.6,1029.1,1046.3,1035,1038.7,1035.2z"/>
</g>
<path class="st1" d="M1602.3,931.3h-85.5c-8.2,0-14.7,6.6-14.7,14.7v70.9c0,8.2,6.6,14.7,14.7,14.7h85.4c8.2,0,14.7-6.6,14.7-14.7
	V946C1617,937.9,1610.3,931.3,1602.3,931.3z M1553.5,945c3.4,0,6,2.7,6,6s-2.7,6-6,6c-3.4,0-6-2.7-6-6
	C1547.3,947.7,1550.1,945,1553.5,945z M1536.5,945c3.4,0,6,2.7,6,6s-2.7,6-6,6c-3.4,0-6-2.7-6-6C1530.3,947.7,1533.1,945,1536.5,945
	z M1520.6,945c3.4,0,6,2.7,6,6s-2.7,6-6,6c-3.4,0-6-2.7-6-6S1517.3,945,1520.6,945z M1609,1016.8c0,3.8-2.9,6.7-6.7,6.7h-85.5
	c-3.8,0-6.7-2.9-6.7-6.7v-43.6h98.8L1609,1016.8L1609,1016.8z"/>
<text transform="matrix(1 0 0 1 872 493.8898)" class="st4 st5 st6">cdwi.de</text>
<g>
	<path class="st7" d="M555.6,614.3H325.4c-19,0-34.4-15.4-34.4-34.4V353.5c0-19,15.4-34.4,34.4-34.4h230.2c19,0,34.4,15.4,34.4,34.4
		v226.4C590,598.9,574.6,614.3,555.6,614.3z"/>
</g>
<g>
	<path class="st7" d="M1753.6,614.3h-230.2c-19,0-34.4-15.4-34.4-34.4V353.5c0-19,15.4-34.4,34.4-34.4h230.2
		c19,0,34.4,15.4,34.4,34.4v226.4C1788,598.9,1772.6,614.3,1753.6,614.3z"/>
</g>
<text transform="matrix(0.9618 0 0 1 343.6646 443.8898)"><tspan x="0" y="0" class="st4 st5 st8">blog.</tspan><tspan x="-51" y="108" class="st4 st5 st8">cdwi.de</tspan></text>
<text transform="matrix(1 0 0 1 1530.998 444.8898)"><tspan x="0" y="0" class="st4 st5 st8">cod...-</tspan><tspan x="-7.5" y="108" class="st4 st5 st8">wi...de</tspan></text>
<g>
	<line class="st9" x1="626" y1="469.9" x2="788" y2="469.9"/>
	<g>
		<line class="st10" x1="626" y1="469.9" x2="780.8" y2="469.9"/>
		<g>
			<path class="st11" d="M739.8,498.7c-0.9-1.4-0.5-3.3,0.9-4.1l38.7-24.7l-38.7-24.7c-1.4-0.9-1.8-2.7-0.9-4.1s2.8-1.8,4.1-0.9
				l42.7,27.2c0.9,0.6,1.4,1.5,1.4,2.5s-0.5,2-1.4,2.5l-42.7,27.2c-0.5,0.3-1.1,0.5-1.6,0.5C741.3,500.1,740.4,499.6,739.8,498.7z"
				/>
		</g>
	</g>
	<line class="st12" x1="626" y1="469.9" x2="788" y2="469.9"/>
</g>
<g>
	<line class="st4" x1="1444" y1="461.9" x2="1282" y2="461.9"/>
	<g>
		<line class="st12" x1="1444" y1="461.9" x2="1289.2" y2="461.9"/>
		<g>
			<path d="M1330.2,433.1c0.9,1.4,0.5,3.3-0.9,4.1l-38.7,24.7l38.7,24.7c1.4,0.9,1.8,2.7,0.9,4.1c-0.9,1.4-2.8,1.8-4.1,0.9
				l-42.7-27.2c-0.9-0.6-1.4-1.5-1.4-2.5s0.5-2,1.4-2.5l42.7-27.2c0.5-0.3,1.1-0.5,1.6-0.5C1328.7,431.7,1329.6,432.2,1330.2,433.1z
				"/>
		</g>
	</g>
	<line class="st13" x1="1444" y1="461.9" x2="1282" y2="461.9"/>
	<line class="st12" x1="1444" y1="461.9" x2="1282" y2="461.9"/>
</g>
</svg>
