<?xml version="1.0" encoding="utf-8"?>
<!-- Generator: Adobe Illustrator 22.0.1, SVG Export Plug-In . SVG Version: 6.00 Build 0)  -->
<svg version="1.1" id="Ebene_1" xmlns="http://www.w3.org/2000/svg" xmlns:xlink="http://www.w3.org/1999/xlink" x="0px" y="0px"
	 viewBox="0 0 512 512" style="enable-background:new 0 0 512 512;" xml:space="preserve">
<style type="text/css">
	.st0{fill:none;}
	.st1{fill:#606060;}
</style>
<g>
	<title>background</title>
	<rect id="canvas_background" x="-1" y="-1" class="st0" width="582" height="402"/>
</g>
<g>
	<title>Layer 1</title>
	<path id="svg_1" class="st1" d="M342.9,161.9c50,49.7,50.3,131,0.5,181c-49.8,50-131,50.3-181,0.5c-13.2-13.2-23.3-29.3-29.9-47.8
		c-2.1-5.8-0.6-12.3,3.7-16.6c4.4-4.4,10.8-5.9,16.6-3.8c35.4,12.5,73.7,3.8,99.9-22.5c26.2-26.3,34.6-64.6,22-100
		c-2.1-5.8-0.6-12.3,3.8-16.6c4.3-4.4,10.8-5.9,16.6-3.8C313.5,138.7,329.7,148.7,342.9,161.9L342.9,161.9z M184.9,320.7 M59,43.9"
		/>
</g>
</svg>
